# xmcd
#
# Track frame offsets:
#	150
#	13226
#	33647
#	52110
#	71413
#	92707
#	105759
#	117639
#	138379
#	154941
#	169340
#	193489
#
# Disc length: 2784 seconds
#
# Revision: 0
# Processed by: cddbd v1.5.2PL0 Copyright (c) Steve Scherf et al.
# Submitted via: EasyCDDAExtractor 10.0.1.1
#
DISCID=af0ade0c
DTITLE=Shaun Tait - Tait
DYEAR=1900
DGENRE=
TTITLE0=Kom Sit Hier By My
TTITLE1=When You Say You Love Me
TTITLE2=Bondeltjie Liefde
TTITLE3=Skipskop
TTITLE4=Elvis Keurspel
TTITLE5=Sing 'n Liedjie
TTITLE6=I'm A believer
TTITLE7=My Way
TTITLE8=Rose Vir Mamma
TTITLE9=Oscar van My hart
TTITLE10=Afrikaanse keurspel
TTITLE11=Amazing Grace
EXTD=
EXTT0=
EXTT1=
EXTT2=
EXTT3=
EXTT4=
EXTT5=
EXTT6=
EXTT7=
EXTT8=
EXTT9=
EXTT10=
EXTT11=
PLAYORDER=
